<svg width="52" height="54" viewBox="0 0 52 54" fill="none" xmlns="http://www.w3.org/2000/svg">
<path d="M25.6435 36.3442C30.6573 36.3442 34.7217 32.2797 34.7217 27.2659C34.7217 22.2521 30.6573 18.1876 25.6435 18.1876C20.6297 18.1876 16.5652 22.2521 16.5652 27.2659C16.5652 32.2797 20.6297 36.3442 25.6435 36.3442Z" stroke="#313133" stroke-width="1.8" stroke-linecap="round" stroke-linejoin="round"/>
<path d="M39.3426 11.6064L42.0808 10.0254C43.3683 9.28057 45.0117 9.72009 45.7565 11.0073L49.7394 17.9114C50.4822 19.2028 50.0389 20.8442 48.7534 21.587L46.017 23.1702L46.052 31.2994L48.7902 32.8804C50.0777 33.6214 50.5212 35.2668 49.7782 36.5543L45.7915 43.4583C45.0485 44.7418 43.4031 45.1853 42.1158 44.4423L39.3736 42.8612L32.3529 46.9549L32.3549 50.1211C32.3549 51.603 31.1511 52.8088 29.6615 52.8088H21.6974C20.2097 52.8088 19.0039 51.603 19.0039 50.1191V46.9549L11.9444 42.9214L9.20415 44.5046C7.91864 45.2474 6.27722 44.8079 5.53421 43.5204L1.54751 36.6204C0.804496 35.3329 1.24602 33.6838 2.53151 32.9428L5.26777 31.3615L5.23471 23.2324L2.49645 21.6494C1.20897 20.9083 0.765692 19.265 1.5105 17.9757L5.49343 11.0755C6.24023 9.7862 7.88354 9.34669 9.17103 10.0895L11.9093 11.6687L18.93 7.57488V4.41064C18.93 2.92501 20.1359 1.72296 21.6215 1.72296H29.5913C31.0771 1.72296 32.283 2.92501 32.283 4.41064V7.57488L39.3426 11.6064Z" stroke="#313133" stroke-width="1.8" stroke-linecap="round" stroke-linejoin="round"/>
</svg>
